<svg width="192" height="74" viewBox="0 0 192 74" fill="none" xmlns="http://www.w3.org/2000/svg">
<path d="M31 3.4641C34.7128 1.32051 39.2872 1.32051 43 3.4641L63.0429 15.0359C66.7558 17.1795 69.0429 21.141 69.0429 25.4282V48.5718C69.0429 52.859 66.7558 56.8205 63.0429 58.9641L43 70.5359C39.2872 72.6795 34.7128 72.6795 31 70.5359L10.9571 58.9641C7.24425 56.8205 4.95706 52.859 4.95706 48.5718V25.4282C4.95706 21.141 7.24425 17.1795 10.9571 15.0359L31 3.4641Z" fill="#D9563A"/>
<path d="M50.4897 28.9063V32.1707C50.4897 34.3021 49.1408 35.6511 47.0094 35.6511H42.396V26.2218C42.396 24.7245 43.6235 23.5104 45.1209 23.5104C46.5913 23.5239 47.9402 24.1175 48.9115 25.0887C49.8827 26.0735 50.4897 27.4224 50.4897 28.9063Z" stroke="white" stroke-width="1.5" stroke-miterlimit="10" stroke-linecap="round" stroke-linejoin="round"/>
<path d="M23.5103 30.2552V49.1406C23.5103 50.2603 24.7783 50.8943 25.6686 50.2198L27.9753 48.4931C28.5149 48.0885 29.2703 48.1424 29.7559 48.628L31.9952 50.8808C32.5213 51.4069 33.3846 51.4069 33.9107 50.8808L36.177 48.6146C36.6491 48.1424 37.4045 48.0885 37.9306 48.4931L40.2373 50.2198C41.1276 50.8808 42.3957 50.2468 42.3957 49.1406V26.2084C42.3957 24.7245 43.6097 23.5104 45.0936 23.5104H30.255H28.9061C24.8592 23.5104 23.5103 25.9251 23.5103 28.9063V30.2552Z" stroke="white" stroke-width="1.5" stroke-miterlimit="10" stroke-linecap="round" stroke-linejoin="round"/>
<path d="M32.9531 38.3625H37" stroke="white" stroke-width="1.5" stroke-linecap="round" stroke-linejoin="round"/>
<path d="M32.9531 32.9667H37" stroke="white" stroke-width="1.5" stroke-linecap="round" stroke-linejoin="round"/>
<path d="M28.9004 38.3489H28.9125" stroke="white" stroke-width="2" stroke-linecap="round" stroke-linejoin="round"/>
<path d="M28.9004 32.9531H28.9125" stroke="white" stroke-width="2" stroke-linecap="round" stroke-linejoin="round"/>
<circle cx="96" cy="37" r="37" fill="#EDEDED"/>
<path d="M104.148 39.0908C103.581 39.6439 103.258 40.4398 103.338 41.2897C103.46 42.7465 104.795 43.8122 106.252 43.8122H108.815V45.4175C108.815 48.2098 106.536 50.4896 103.743 50.4896H90.1052C90.5234 50.1388 90.8876 49.7072 91.1709 49.2215C91.67 48.4122 91.9533 47.4544 91.9533 46.4427C91.9533 43.4615 89.5387 41.0469 86.5575 41.0469C85.2894 41.0469 84.1158 41.492 83.1851 42.2339V36.339C83.1851 33.5467 85.4648 31.2669 88.2571 31.2669H103.743C106.536 31.2669 108.815 33.5467 108.815 36.339V38.2815H106.09C105.335 38.2815 104.647 38.5782 104.148 39.0908Z" stroke="#747578" stroke-width="1.5" stroke-linecap="round" stroke-linejoin="round"/>
<path d="M83.1851 37.5532V31.3885C83.1851 29.7832 84.1698 28.3533 85.6671 27.7867L96.3779 23.7398C98.0506 23.1058 99.8447 24.3469 99.8447 26.141V31.267" stroke="#747578" stroke-width="1.5" stroke-linecap="round" stroke-linejoin="round"/>
<path d="M110.244 39.6576V42.4366C110.244 43.1785 109.65 43.7855 108.895 43.8124H106.251C104.794 43.8124 103.458 42.7468 103.337 41.2899C103.256 40.44 103.58 39.6442 104.146 39.0911C104.645 38.5785 105.333 38.2817 106.089 38.2817H108.895C109.65 38.3087 110.244 38.9157 110.244 39.6576Z" stroke="#747578" stroke-width="1.5" stroke-linecap="round" stroke-linejoin="round"/>
<path d="M89.2554 37H98.6981" stroke="#747578" stroke-width="1.5" stroke-linecap="round" stroke-linejoin="round"/>
<path d="M91.9533 46.4427C91.9533 47.4544 91.67 48.4122 91.1709 49.2216C90.8876 49.7072 90.5234 50.1389 90.1052 50.4896C89.161 51.3394 87.9199 51.8385 86.5575 51.8385C84.588 51.8385 82.8748 50.7864 81.944 49.2216C81.4449 48.4122 81.1616 47.4544 81.1616 46.4427C81.1616 44.743 81.944 43.2187 83.1851 42.234C84.1158 41.492 85.2894 41.0469 86.5575 41.0469C89.5387 41.0469 91.9533 43.4615 91.9533 46.4427Z" stroke="#747578" stroke-width="1.5" stroke-miterlimit="10" stroke-linecap="round" stroke-linejoin="round"/>
<path d="M84.4546 46.4421L85.79 47.7775L88.6633 45.1201" stroke="#747578" stroke-width="1.5" stroke-linecap="round" stroke-linejoin="round"/>
<circle cx="155" cy="37" r="37" fill="#EDEDED"/>
<path d="M159.573 27.8406L161.475 31.6446C161.731 32.1707 162.419 32.6698 162.999 32.7778L166.439 33.3443C168.638 33.7085 169.151 35.3003 167.572 36.8921L164.888 39.5765C164.443 40.0217 164.187 40.8985 164.335 41.5325L165.104 44.851C165.711 47.4679 164.308 48.4931 162.001 47.1172L158.777 45.2017C158.197 44.851 157.226 44.851 156.646 45.2017L153.422 47.1172C151.115 48.4796 149.712 47.4679 150.319 44.851L151.088 41.5325C151.237 40.912 150.98 40.0352 150.535 39.5765L147.851 36.8921C146.272 35.3138 146.785 33.722 148.984 33.3443L152.424 32.7778C153.004 32.6833 153.692 32.1707 153.948 31.6446L155.85 27.8406C156.862 25.7767 158.534 25.7767 159.573 27.8406Z" stroke="#747578" stroke-width="1.5" stroke-linecap="round" stroke-linejoin="round"/>
<path d="M149.604 27.5573H141.51" stroke="#747578" stroke-width="1.5" stroke-linecap="round" stroke-linejoin="round"/>
<path d="M145.557 46.4427H141.51" stroke="#747578" stroke-width="1.5" stroke-linecap="round" stroke-linejoin="round"/>
<path d="M142.859 37H141.51" stroke="#747578" stroke-width="1.5" stroke-linecap="round" stroke-linejoin="round"/>
</svg>
