<svg width="192" height="74" viewBox="0 0 192 74" fill="none" xmlns="http://www.w3.org/2000/svg">
<circle cx="37" cy="37" r="37" fill="#EDEDED"/>
<path d="M50.4897 28.9063V32.1707C50.4897 34.3021 49.1408 35.6511 47.0094 35.6511H42.396V26.2218C42.396 24.7245 43.6235 23.5104 45.1209 23.5104C46.5913 23.5239 47.9402 24.1175 48.9115 25.0887C49.8827 26.0735 50.4897 27.4224 50.4897 28.9063Z" stroke="#747578" stroke-width="1.5" stroke-miterlimit="10" stroke-linecap="round" stroke-linejoin="round"/>
<path d="M23.5103 30.2552V49.1406C23.5103 50.2603 24.7783 50.8943 25.6686 50.2198L27.9753 48.4931C28.5149 48.0885 29.2703 48.1424 29.7559 48.628L31.9952 50.8808C32.5213 51.4069 33.3846 51.4069 33.9107 50.8808L36.177 48.6146C36.6491 48.1424 37.4045 48.0885 37.9306 48.4931L40.2373 50.2198C41.1276 50.8808 42.3957 50.2468 42.3957 49.1406V26.2084C42.3957 24.7245 43.6097 23.5104 45.0936 23.5104H30.255H28.9061C24.8592 23.5104 23.5103 25.9251 23.5103 28.9063V30.2552Z" stroke="#747578" stroke-width="1.5" stroke-miterlimit="10" stroke-linecap="round" stroke-linejoin="round"/>
<path d="M32.9531 38.3625H37" stroke="#747578" stroke-width="1.5" stroke-linecap="round" stroke-linejoin="round"/>
<path d="M32.9531 32.9667H37" stroke="#747578" stroke-width="1.5" stroke-linecap="round" stroke-linejoin="round"/>
<path d="M28.9004 38.3489H28.9125" stroke="#747578" stroke-width="2" stroke-linecap="round" stroke-linejoin="round"/>
<path d="M28.9004 32.9531H28.9125" stroke="#747578" stroke-width="2" stroke-linecap="round" stroke-linejoin="round"/>
<path d="M90 3.4641C93.7128 1.32051 98.2872 1.32051 102 3.4641L122.043 15.0359C125.756 17.1795 128.043 21.141 128.043 25.4282V48.5718C128.043 52.859 125.756 56.8205 122.043 58.9641L102 70.5359C98.2872 72.6795 93.7128 72.6795 90 70.5359L69.9571 58.9641C66.2442 56.8205 63.9571 52.859 63.9571 48.5718V25.4282C63.9571 21.141 66.2442 17.1795 69.9571 15.0359L90 3.4641Z" fill="#D9563A"/>
<path d="M104.148 38.5908C103.581 39.1439 103.258 39.9398 103.338 40.7897C103.46 42.2465 104.795 43.3122 106.252 43.3122H108.815V44.9175C108.815 47.7098 106.536 49.9896 103.743 49.9896H90.1052C90.5234 49.6388 90.8876 49.2072 91.1709 48.7215C91.67 47.9122 91.9533 46.9544 91.9533 45.9427C91.9533 42.9615 89.5387 40.5469 86.5575 40.5469C85.2894 40.5469 84.1158 40.992 83.1851 41.7339V35.839C83.1851 33.0467 85.4648 30.7669 88.2571 30.7669H103.743C106.536 30.7669 108.815 33.0467 108.815 35.839V37.7815H106.09C105.335 37.7815 104.647 38.0782 104.148 38.5908Z" stroke="white" stroke-width="1.5" stroke-linecap="round" stroke-linejoin="round"/>
<path d="M83.1851 37.0532V30.8885C83.1851 29.2832 84.1698 27.8533 85.6671 27.2867L96.3779 23.2398C98.0506 22.6058 99.8447 23.8469 99.8447 25.641V30.767" stroke="white" stroke-width="1.5" stroke-linecap="round" stroke-linejoin="round"/>
<path d="M110.244 39.1576V41.9366C110.244 42.6785 109.65 43.2855 108.895 43.3124H106.251C104.794 43.3124 103.458 42.2468 103.337 40.7899C103.256 39.94 103.58 39.1442 104.146 38.5911C104.645 38.0785 105.333 37.7817 106.089 37.7817H108.895C109.65 37.8087 110.244 38.4157 110.244 39.1576Z" stroke="white" stroke-width="1.5" stroke-linecap="round" stroke-linejoin="round"/>
<path d="M89.2554 36.5H98.6981" stroke="white" stroke-width="1.5" stroke-linecap="round" stroke-linejoin="round"/>
<path d="M91.9533 45.9427C91.9533 46.9544 91.67 47.9122 91.1709 48.7216C90.8876 49.2072 90.5234 49.6389 90.1052 49.9896C89.161 50.8394 87.9199 51.3385 86.5575 51.3385C84.588 51.3385 82.8748 50.2864 81.944 48.7216C81.4449 47.9122 81.1616 46.9544 81.1616 45.9427C81.1616 44.243 81.944 42.7187 83.1851 41.734C84.1158 40.992 85.2894 40.5469 86.5575 40.5469C89.5387 40.5469 91.9533 42.9615 91.9533 45.9427Z" stroke="white" stroke-width="1.5" stroke-miterlimit="10" stroke-linecap="round" stroke-linejoin="round"/>
<path d="M84.4546 45.9421L85.79 47.2775L88.6633 44.6201" stroke="white" stroke-width="1.5" stroke-linecap="round" stroke-linejoin="round"/>
<circle cx="155" cy="37" r="37" fill="#EDEDED"/>
<path d="M159.573 27.8406L161.475 31.6446C161.731 32.1707 162.419 32.6698 162.999 32.7778L166.439 33.3443C168.638 33.7085 169.151 35.3003 167.572 36.8921L164.888 39.5765C164.443 40.0217 164.187 40.8985 164.335 41.5325L165.104 44.851C165.711 47.4679 164.308 48.4931 162.001 47.1172L158.777 45.2017C158.197 44.851 157.226 44.851 156.646 45.2017L153.422 47.1172C151.115 48.4796 149.712 47.4679 150.319 44.851L151.088 41.5325C151.237 40.912 150.98 40.0352 150.535 39.5765L147.851 36.8921C146.272 35.3138 146.785 33.722 148.984 33.3443L152.424 32.7778C153.004 32.6833 153.692 32.1707 153.948 31.6446L155.85 27.8406C156.862 25.7767 158.534 25.7767 159.573 27.8406Z" stroke="#747578" stroke-width="1.5" stroke-linecap="round" stroke-linejoin="round"/>
<path d="M149.604 27.5573H141.51" stroke="#747578" stroke-width="1.5" stroke-linecap="round" stroke-linejoin="round"/>
<path d="M145.557 46.4427H141.51" stroke="#747578" stroke-width="1.5" stroke-linecap="round" stroke-linejoin="round"/>
<path d="M142.859 37H141.51" stroke="#747578" stroke-width="1.5" stroke-linecap="round" stroke-linejoin="round"/>
</svg>
