<svg width="64" height="64" viewBox="0 0 64 64" fill="none" xmlns="http://www.w3.org/2000/svg">
<path d="M28.25 2.74219C30.4981 1.44428 33.2516 1.40412 35.5312 2.62109L35.75 2.74219L55.4629 14.124C57.7833 15.4638 59.2129 17.9397 59.2129 20.6191V43.3809C59.2129 46.0603 57.7833 48.5362 55.4629 49.876L35.75 61.2578C33.4295 62.5975 30.5705 62.5975 28.25 61.2578L8.53711 49.876C6.21674 48.5362 4.78711 46.0603 4.78711 43.3809V20.6191C4.78711 17.9397 6.21674 15.4638 8.53711 14.124L28.25 2.74219Z" stroke="#747578"/>
<path d="M24 37.9817C24 41.0762 26.3748 43.5709 29.3253 43.5709H35.3463C37.913 43.5709 40 41.388 40 38.7014C40 35.7748 38.7286 34.7433 36.8336 34.0717L27.1664 30.7134C25.2714 30.0417 24 29.0102 24 26.0837C24 23.397 26.087 21.2141 28.6537 21.2141H34.6747C37.6252 21.2141 40 23.7089 40 26.8033" stroke="#747578" stroke-width="2" stroke-linecap="round" stroke-linejoin="round"/>
<path d="M31.9834 18V46.7856" stroke="#747578" stroke-width="2" stroke-linecap="round" stroke-linejoin="round"/>
</svg>
