<svg width="64" height="64" viewBox="0 0 64 64" fill="none" xmlns="http://www.w3.org/2000/svg">
<path d="M28.25 2.74219C30.4981 1.44428 33.2516 1.40412 35.5312 2.62109L35.75 2.74219L55.4629 14.124C57.7833 15.4638 59.2129 17.9397 59.2129 20.6191V43.3809C59.2129 46.0603 57.7833 48.5362 55.4629 49.876L35.75 61.2578C33.4295 62.5975 30.5705 62.5975 28.25 61.2578L8.53711 49.876C6.21674 48.5362 4.78711 46.0603 4.78711 43.3809V20.6191C4.78711 17.9397 6.21674 15.4638 8.53711 14.124L28.25 2.74219Z" stroke="#747578"/>
<path d="M21 43L41 21" stroke="#747578" stroke-width="2" stroke-linecap="round" stroke-linejoin="round"/>
<path d="M26.0001 26C28.7615 26 31 23.7615 31 21.0001C31 18.2386 28.7615 16 26.0001 16C23.2386 16 21 18.2386 21 21.0001C21 23.7615 23.2386 26 26.0001 26Z" stroke="#747578" stroke-width="2" stroke-linecap="round" stroke-linejoin="round"/>
<path d="M38.9999 46C41.7614 46 44 43.7614 44 40.9999C44 38.2385 41.7614 36 38.9999 36C36.2385 36 34 38.2385 34 40.9999C34 43.7614 36.2385 46 38.9999 46Z" stroke="#747578" stroke-width="2" stroke-linecap="round" stroke-linejoin="round"/>
</svg>
