<svg width="64" height="64" viewBox="0 0 64 64" fill="none" xmlns="http://www.w3.org/2000/svg">
<path d="M28.25 2.74219C30.4981 1.44428 33.2516 1.40412 35.5312 2.62109L35.75 2.74219L55.4629 14.124C57.7833 15.4638 59.2129 17.9397 59.2129 20.6191V43.3809C59.2129 46.0603 57.7833 48.5362 55.4629 49.876L35.75 61.2578C33.4295 62.5975 30.5705 62.5975 28.25 61.2578L8.53711 49.876C6.21674 48.5362 4.78711 46.0603 4.78711 43.3809V20.6191C4.78711 17.9397 6.21674 15.4638 8.53711 14.124L28.25 2.74219Z" stroke="#747578"/>
<path d="M26.8686 28.0483H19.2692C17.4625 28.0483 16 29.5107 16 31.3174V46.0001H26.8686V28.0483V28.0483Z" stroke="#747578" stroke-width="2" stroke-miterlimit="10" stroke-linecap="round" stroke-linejoin="round"/>
<path d="M34.4721 15H30.1131C28.3065 15 26.844 16.4626 26.844 18.2692V45.9715H37.7127V18.2692C37.7127 16.4626 36.2788 15 34.4721 15Z" stroke="#747578" stroke-width="2" stroke-miterlimit="10" stroke-linecap="round" stroke-linejoin="round"/>
<path d="M45.3314 32.9231H37.7319V45.9714H48.6006V36.1923C48.5719 34.3857 47.1094 32.9231 45.3314 32.9231Z" stroke="#747578" stroke-width="2" stroke-miterlimit="10" stroke-linecap="round" stroke-linejoin="round"/>
</svg>
