<svg width="64" height="64" viewBox="0 0 64 64" fill="none" xmlns="http://www.w3.org/2000/svg">
<path d="M37.1576 13.4462C43.6618 15.1382 48.8621 20.3385 50.5386 26.8272H47.3098C45.7885 22.015 41.9543 18.1963 37.1576 16.675V13.4462Z" fill="#747578"/>
<path d="M37.1576 49.5378V46.309C41.9698 44.7878 45.7885 40.9535 47.3098 36.1569H50.5386C48.8465 42.6611 43.6463 47.8613 37.1576 49.5378Z" fill="#747578"/>
<path d="M27.8427 49.5534C21.3385 47.8613 16.1382 42.6611 14.4617 36.1724H17.6906C19.2118 40.9846 23.046 44.8033 27.8427 46.3245V49.5534Z" fill="#747578"/>
<path d="M27.8427 13.4617V16.6906C23.0305 18.2118 19.2118 22.046 17.6906 26.8427H14.4617C16.1538 20.3385 21.354 15.1382 27.8427 13.4617Z" fill="#747578"/>
<path d="M38.1194 25.6321C37.4519 25.1043 36.4739 25.1975 35.9306 25.8805L30.808 32.2915L28.9297 30.4132C28.3243 29.8078 27.3463 29.8078 26.7409 30.4132C26.1355 31.0186 26.1355 31.9966 26.7409 32.602L29.8455 35.7066C30.1405 36.0016 30.5286 36.1568 30.9477 36.1568C30.9787 36.1568 31.0098 36.1568 31.0408 36.1568C31.4755 36.1258 31.8946 35.924 32.174 35.5824L38.3833 27.8209C38.9266 27.1534 38.8179 26.1754 38.1349 25.6321H38.1194Z" fill="#747578"/>
<path d="M28.25 2.74219C30.4981 1.44428 33.2516 1.40412 35.5312 2.62109L35.75 2.74219L55.4629 14.124C57.7833 15.4638 59.2129 17.9397 59.2129 20.6191V43.3809C59.2129 46.0603 57.7833 48.5362 55.4629 49.876L35.75 61.2578C33.4295 62.5975 30.5705 62.5975 28.25 61.2578L8.53711 49.876C6.21674 48.5362 4.78711 46.0603 4.78711 43.3809V20.6191C4.78711 17.9397 6.21674 15.4638 8.53711 14.124L28.25 2.74219Z" stroke="#747578"/>
</svg>
