<?xml version="1.0" encoding="UTF-8"?>
<svg id="Layer_1" xmlns="http://www.w3.org/2000/svg" version="1.1" viewBox="0 0 434.4 147">
  <!-- Generator: Adobe Illustrator 29.5.1, SVG Export Plug-In . SVG Version: 2.1.0 Build 141)  -->
  <defs>
    <style>
      .st0 {
        fill: #d9563a;
      }

      .st1 {
        fill: #231f20;
      }
    </style>
  </defs>
  <g>
    <polygon class="st1" points="208 78.9 189.7 78.9 189.7 62.6 183.2 62.6 183.2 101.3 189.7 101.3 189.7 85 208 85 208 101.3 214.4 101.3 214.4 62.6 208 62.6 208 78.9"/>
    <path class="st1" d="M243.5,73.6c-2.1-1.4-4.7-2.1-7.7-2.1s-5.3.6-7.5,1.9c-2.2,1.3-3.8,3.1-5.1,5.4-1.2,2.3-1.8,5.1-1.8,8.2s.6,5.5,1.9,7.8c1.3,2.3,3,4,5.2,5.3,2.2,1.3,4.8,1.9,7.7,1.9s5.4-.7,7.7-2.2c2.3-1.4,4-3.5,5.1-6.1l-6.4-1.9c-.6,1.3-1.5,2.4-2.7,3.1-1.2.7-2.5,1.1-4.1,1.1-2.5,0-4.3-.8-5.6-2.4-1-1.3-1.6-2.9-1.8-5h21c.3-3.5-.1-6.5-1.2-9-1-2.6-2.6-4.5-4.7-6ZM228.5,83.7c.3-1.7.8-3,1.6-4.1,1.3-1.6,3.3-2.5,5.9-2.5s4.1.7,5.2,2.2c.8,1,1.3,2.5,1.5,4.4h-14.2Z"/>
    <polygon class="st1" points="280.5 72.3 272.9 72.3 266.5 81.6 259.9 72.3 252.3 72.3 262.7 86.6 252.1 101.3 259.7 101.3 266.5 91.7 273.1 101.3 280.8 101.3 270.1 86.6 280.5 72.3"/>
    <path class="st1" d="M307.9,76.9c-.9-1.9-2.4-3.3-4.4-4.1-1.9-.8-4.2-1.3-6.8-1.3s-6.1.7-8.1,2.2c-2,1.5-3.4,3.4-4.1,5.9l5.9,1.8c.5-1.5,1.3-2.5,2.6-3.1,1.2-.6,2.5-.9,3.8-.9,2.2,0,3.7.5,4.6,1.4.8.8,1.2,1.9,1.3,3.5-1.1.2-2.3.3-3.4.5-1.8.3-3.5.5-5.1.8-1.6.3-2.9.6-4.1,1-1.5.5-2.8,1.2-3.8,2-1,.8-1.7,1.8-2.1,2.9-.5,1.1-.7,2.4-.7,3.8s.4,3,1.1,4.4c.7,1.3,1.8,2.4,3.3,3.2,1.4.8,3.2,1.2,5.3,1.2s4.8-.5,6.5-1.5c1.3-.7,2.5-1.8,3.6-3.3v3.9h5.7v-17.8c0-1.3,0-2.4-.2-3.5-.1-1.1-.4-2.1-.9-3.1ZM302.5,89.3c0,1.1-.2,2-.6,2.8-.2.7-.6,1.4-1.3,2.1-.6.8-1.4,1.4-2.5,1.9-1,.5-2.3.8-3.8.8s-1.9-.2-2.6-.5c-.7-.3-1.2-.7-1.6-1.3-.4-.5-.5-1.2-.5-1.9s.1-1.2.4-1.6c.3-.5.7-.9,1.2-1.2.5-.4,1.2-.7,1.9-.9.8-.3,1.7-.5,2.7-.7,1-.2,2.2-.4,3.6-.7.9-.2,1.9-.3,3-.5,0,.5,0,1,0,1.7Z"/>
    <path class="st1" d="M336.9,74.4c-.4-.3-.7-.6-1.1-.9-1.9-1.3-4.2-2-6.9-2s-5.1.7-7.1,2c-2,1.3-3.6,3.2-4.7,5.4-1.1,2.3-1.6,4.9-1.6,7.9s.5,5.5,1.6,7.8c1.1,2.3,2.6,4.1,4.6,5.5,2,1.3,4.3,2,7,2s5.2-.7,7.1-2c.1,0,.2-.2.3-.3v2.8c0,1.4-.2,2.5-.8,3.4-.6.9-1.4,1.6-2.5,2.1-1.1.5-2.3.7-3.6.7s-2.2-.3-3.2-.8c-1-.5-1.8-1.3-2.3-2.4l-6,3c.7,1.3,1.7,2.5,2.9,3.4,1.2.9,2.5,1.7,4,2.2,1.5.5,3,.7,4.6.7s4.2-.3,6-.9c1.8-.6,3.3-1.5,4.5-2.7,1.2-1.2,2.1-2.7,2.5-4.6.1-.6.2-1.3.3-2,0-.7.1-1.4.1-2.1v-30.4h-5.7v2.1ZM336.2,91.7c-.5,1.4-1.3,2.5-2.3,3.3-1.1.8-2.5,1.2-4.2,1.2s-3.1-.4-4.2-1.3c-1.1-.8-1.9-2-2.4-3.4-.5-1.4-.8-3-.8-4.8s.3-3.3.8-4.8,1.4-2.6,2.5-3.4c1.1-.8,2.6-1.3,4.3-1.3s3,.4,4,1.2c1,.8,1.8,1.9,2.3,3.3.5,1.4.7,3.1.7,5s-.3,3.5-.7,5Z"/>
    <path class="st1" d="M371.6,73.5c-2.2-1.3-4.7-2-7.6-2s-5.3.6-7.5,1.9c-2.2,1.3-3.8,3.1-5.1,5.4-1.2,2.3-1.8,5-1.8,8s.6,5.6,1.8,7.9c1.2,2.3,2.9,4.1,5,5.4,2.2,1.3,4.7,1.9,7.6,1.9s5.4-.6,7.6-1.9c2.2-1.3,3.8-3.1,5.1-5.4,1.2-2.3,1.8-5,1.8-8s-.6-5.6-1.8-7.9c-1.2-2.3-2.9-4.1-5-5.4ZM369.7,93.4c-1.3,1.7-3.2,2.6-5.7,2.6s-4.4-.8-5.6-2.5c-1.3-1.7-1.9-3.9-1.9-6.7s.3-3.4.8-4.8c.5-1.4,1.4-2.5,2.5-3.2,1.1-.8,2.5-1.2,4.3-1.2,2.5,0,4.4.8,5.7,2.5,1.3,1.7,1.9,3.9,1.9,6.7s-.6,5-1.9,6.7Z"/>
    <path class="st1" d="M411.8,82.4c-.1-1.1-.4-2.3-.8-3.6-.4-1.3-1-2.4-1.8-3.5-.8-1.1-1.9-2-3.3-2.7-1.4-.7-3.2-1.1-5.3-1.1s-5,.6-6.9,1.8c-1,.6-1.9,1.4-2.6,2.3v-3.3h-5.8v29h6.5v-14.9c0-1.8.2-3.2.6-4.4.4-1.1.9-2,1.6-2.7.7-.7,1.4-1.1,2.2-1.4.8-.3,1.6-.4,2.4-.4,1.5,0,2.8.3,3.7,1,.9.7,1.6,1.5,2,2.5.5,1,.7,2.1.9,3.2.1,1.1.2,2.1.2,3v14h6.5v-16.2c0-.7,0-1.6-.2-2.7Z"/>
  </g>
  <g>
    <circle class="st0" cx="27.2" cy="120.1" r="4.8"/>
    <circle class="st0" cx="47.5" cy="120.1" r="4.8"/>
    <circle class="st0" cx="67.8" cy="120.1" r="4.8"/>
    <circle class="st0" cx="88" cy="120.1" r="4.8"/>
    <circle class="st0" cx="108.3" cy="120.1" r="4.8"/>
    <circle class="st0" cx="128.6" cy="120.1" r="4.8"/>
  </g>
  <g>
    <circle class="st0" cx="27.2" cy="101.4" r="4.8"/>
    <circle class="st0" cx="47.5" cy="101.4" r="4.8"/>
    <circle class="st0" cx="67.8" cy="101.4" r="4.8"/>
    <circle class="st0" cx="88" cy="101.4" r="4.8"/>
    <circle class="st0" cx="108.3" cy="101.4" r="4.8"/>
    <circle class="st0" cx="128.6" cy="101.4" r="4.8"/>
  </g>
  <g>
    <circle class="st0" cx="27.2" cy="82.8" r="4.8"/>
    <circle class="st0" cx="47.5" cy="82.8" r="4.8"/>
    <circle class="st0" cx="67.8" cy="82.8" r="4.8"/>
    <circle class="st0" cx="88" cy="82.8" r="4.8"/>
    <circle class="st0" cx="108.3" cy="82.8" r="4.8"/>
    <circle class="st0" cx="128.6" cy="82.8" r="4.8"/>
    <circle class="st0" cx="148.8" cy="82.8" r="4.8"/>
  </g>
  <g>
    <circle class="st0" cx="47.5" cy="64.2" r="4.8"/>
    <circle class="st0" cx="67.8" cy="64.2" r="4.8"/>
    <circle class="st0" cx="88" cy="64.2" r="4.8"/>
    <circle class="st0" cx="108.3" cy="64.2" r="4.8"/>
    <circle class="st0" cx="128.6" cy="64.2" r="4.8"/>
  </g>
  <g>
    <circle class="st0" cx="67.8" cy="45.6" r="4.8"/>
    <circle class="st0" cx="88" cy="45.6" r="4.8"/>
    <circle class="st0" cx="108.3" cy="45.6" r="4.8"/>
    <circle class="st0" cx="128.6" cy="45.6" r="4.8"/>
  </g>
  <g>
    <circle class="st0" cx="88" cy="26.9" r="4.8"/>
    <circle class="st0" cx="108.3" cy="26.9" r="4.8"/>
  </g>
</svg>