<?xml version="1.0" encoding="UTF-8"?>
<svg id="Layer_1" xmlns="http://www.w3.org/2000/svg" version="1.1" viewBox="0 0 384 384">
  <!-- Generator: Adobe Illustrator 29.7.1, SVG Export Plug-In . SVG Version: 2.1.1 Build 8)  -->
  <defs>
    <style>
      .st0 {
        fill: #757575;
      }
    </style>
  </defs>
  <path class="st0" d="M371.5,50.67v9.12l-56.77,263.32c-5.25,14.43-16.81,15.04-29,7.91l-81.46-59.5c-.76,0-3.71,2.47-4.57,3.17-13.41,11-25.99,27.72-39.62,38.21-3.77,2.9-8.13,4.39-12.95,4.22l6.67-84.13,153.14-137.14c1.18-1.14,2.86-4.12,1-5.26-3.54-1.57-7.21-.1-10.43,1.44l-190.16,119.09-84.51-25.98c-4.3-1.79-8.05-4.14-10.33-8.25v-4.21c1.82-3.93,4.31-6.28,7.93-8.55,110.26-43.72,221.4-85.94,332.5-127.47,6.22-.61,12.04.71,15.52,6.2l3.06,7.81Z"/>
</svg>